{"title":"Heartland.s05e16.HDTV.XviD-2HD","uid":7099754,"size":366200220,"categoryP":"video","categoryS":"tv_shows","magnet":"?xt=urn:btih:7c1645dacd23d3d2875dcfc461cebe15468ac3f0&amp;dn=Heartland.s05e16.HDTV.XviD-2HD&amp;tr=udp%3A%2F%2Ftracker.openbittorrent.com%3A80&amp;tr=udp%3A%2F%2Fopen.demonii.com%3A1337&amp;tr=udp%3A%2F%2Ftracker.coppersurfer.tk%3A6969&amp;tr=udp%3A%2F%2Fexodus.desync.com%3A6969","seeders":3,"leechers":0,"uploader":"iamgreat","files":-1,"time":1331658390,"description":"2HD apparently omitted the nfo for their release of Heartland.s05e16.HDTV.XviD-2HD.avi so here is the file specs and other info. It isn't as fancy as their nfo files are but i also didn't want to give the impression this is my release. I am simply uploading it because in two days noone else has and i am done seeding the Don Cherry mega-bio-pic and Undercover Boss Canada too. \n\n\n~~~~~~~~~~~~~~~~~~~~~~~~~~~~~~~~~~~~~~~~~~~~~~~~~~~~~~~~~\n\nFile name:       Heartland.s05e16.HDTV.XviD-2HD.avi\nBroadcast:       11 March 2012\nRelease:         11 March 2012\nSource:          some CBC HD channel\nEpisode:         Wild Horses\nEpisode Summary: Amy and Ty join Scott on a trip back to his old reservation to save a herd of wild horses from the dangerous EHY-1 virus. \n\n\n\nThe more detailed file specs:\nComplete name                    : heartland.ca.s05e16.hdtv.xvid-2hd.avi\nFormat                           : AVI\nFormat/Info                      : Audio Video Interleave\nFile size                        : 349 MiB\nDuration                         : 44mn 33s\nOverall bit rate mode            : Variable\nOverall bit rate                 : 1 096 Kbps\nWriting application              : MEncoder SVN-r32669-4.3.2\nWriting library                  : MPlayer\n\nVideo\nID                               : 0\nFormat                           : MPEG-4 Visual\nFormat profile                   : Advanced Simple@L5\nFormat settings, BVOP            : 2\nFormat settings, QPel            : No\nFormat settings, GMC             : No warppoints\nFormat settings, Matrix          : Default (H.263)\nMuxing mode                      : Packed bitstream\nCodec ID                         : XVID\nCodec ID/Hint                    : XviD\nDuration                         : 44mn 33s\nBit rate                         : 956 Kbps\nWidth                            : 624 pixels\nHeight                           : 352 pixels\nDisplay aspect ratio             : 16:9\nFrame rate                       : 23.976 fps\nColor space                      : YUV\nChroma subsampling               : 4:2:0\nBit depth                        : 8 bits\nScan type                        : Progressive\nCompression mode                 : Lossy\nBits/(Pixel*Frame)               : 0.182\nStream size                      : 305 MiB (87%)\nWriting library                  : XviD 64\n\nAudio\nID                               : 1\nFormat                           : MPEG Audio\nFormat version                   : Version 1\nFormat profile                   : Layer 3\nMode                             : Joint stereo\nMode extension                   : MS Stereo\nCodec ID                         : 55\nCodec ID/Hint                    : MP3\nDuration                         : 44mn 33s\nBit rate mode                    : Variable\nBit rate                         : 128 Kbps\nChannel(s)                       : 2 channels\nSampling rate                    : 48.0 KHz\nCompression mode                 : Lossy\nStream size                      : 40.4 MiB (12%)\nAlignment                        : Aligned on interleaves\nInterleave, duration             : 24 ms (0.58 video frame)\n\n\nThanks to 2HD for the release of the episode. Thanks to err0001 for the picture.\nThanks to justmee1 for reminding me noone had uploaded it. ","torrent":{"xt":"urn:btih:7c1645dacd23d3d2875dcfc461cebe15468ac3f0","amp;dn":"Heartland.s05e16.HDTV.XviD-2HD","amp;tr":["udp%3A%2F%2Ftracker.openbittorrent.com%3A80","udp%3A%2F%2Fopen.demonii.com%3A1337","udp%3A%2F%2Ftracker.coppersurfer.tk%3A6969","udp%3A%2F%2Fexodus.desync.com%3A6969"],"infoHash":"7c1645dacd23d3d2875dcfc461cebe15468ac3f0","infoHashBuffer":{"type":"Buffer","data":[124,22,69,218,205,35,211,210,135,93,207,196,97,206,190,21,70,138,195,240]},"announce":[],"urlList":[]}}